<svg width="237" height="40" viewBox="0 0 237 40" fill="none" xmlns="http://www.w3.org/2000/svg">
<path d="M16.043 27.3064C13.8667 26.498 11.6281 26.3737 9.57614 26.9333C8.14596 27.3064 6.77796 28.0526 5.53432 28.9853L4.66376 29.7315L4.41504 29.9802L4.97467 30.4777C5.03685 30.4777 5.03686 30.5399 5.09904 30.602C5.22341 30.7264 5.34778 30.7886 5.53432 30.9129L5.9074 31.1617L6.28049 30.8508C6.34268 30.7886 6.46704 30.6642 6.5914 30.602C7.71068 29.6693 8.95431 29.0475 10.2601 28.7366C11.939 28.3013 13.7423 28.3635 15.5456 29.0475C17.0379 29.6071 20.0849 30.2911 23.7536 28.7366L23.878 28.6744L24.0645 28.4879C24.0645 28.4257 24.1267 28.4257 24.1889 28.3635C24.4998 27.9904 24.8107 27.6173 25.0594 27.182L26.303 25.2544L24.3132 26.3737C21.3907 27.9904 18.7169 28.3013 16.043 27.3064Z" fill="#55B02E"/>
<path d="M7.52364 20.5906C9.20255 20.1553 11.0058 20.2175 12.8091 20.9015C14.7989 21.6477 19.8978 22.7048 25.6186 17.5437L26.5513 16.611L26.6135 16.5488L26.8622 16.3001L26.7378 15.9891C26.6756 15.7404 26.5513 15.4295 26.4269 15.1186L26.116 14.248L25.4942 14.8699C25.432 14.9942 25.3076 15.0564 25.1833 15.1808C22.4473 17.979 18.2189 20.8393 13.3687 19.0982C11.1924 18.2899 8.95382 18.1655 6.90182 18.7251C4.91201 19.2848 3.17091 20.3419 1.55418 21.8342V21.7721L0.621456 22.767C0.621456 22.8291 0.559286 22.8292 0.497104 22.8913L0.310547 23.0779L0.372732 23.3266C0.434914 23.6375 0.559274 23.9484 0.621456 24.2593L0.994551 25.2542L1.61637 24.4459C1.67855 24.3215 1.80291 24.2593 1.86509 24.135C3.17091 22.9535 4.97419 21.2746 7.52364 20.5906Z" fill="#55B02E"/>
<path d="M1.49238 19.4713C2.92256 17.9789 4.53928 17.0462 6.28037 16.5487C7.95928 16.1135 9.76255 16.1757 11.5658 16.8597C17.1622 18.9117 22.0124 15.5538 24.1266 13.7506L24.9349 12.9422L25.2458 12.6935L24.9971 12.3204C24.8106 12.1338 24.6862 11.8851 24.4997 11.6364L24.1266 11.1389L23.6913 11.5742C23.6291 11.6364 23.5047 11.7607 23.4426 11.8229C20.8309 14.3102 16.7891 16.8597 12.1876 15.1186C10.0113 14.3102 7.77273 14.1858 5.72074 14.7455C4.41492 15.1186 3.17128 15.7404 1.92764 16.5487L0.621818 17.6058C0.497455 17.7302 0.435273 17.7924 0.310909 17.9167L0.186557 18.0411V18.2277C0.124375 18.6629 0.124367 19.0982 0.0621856 19.4713L0 21.0258L1.0571 19.9066C1.18146 19.7822 1.30583 19.5957 1.49238 19.4713Z" fill="#55B02E"/>
<path d="M17.8466 31.5346L17.7222 31.9077L17.8466 31.5346C17.66 31.4725 17.5357 31.4103 17.3491 31.3481C15.1728 30.5397 12.9342 30.4154 10.8822 30.975C10.4469 31.0994 10.0117 31.2237 9.57639 31.4103L8.08401 32.0943L7.71094 32.2808L8.95457 32.7161C9.32766 32.8405 9.70075 32.9648 10.0738 33.0892L10.2604 33.1514L10.4469 33.0892C10.6335 33.027 10.82 32.9026 11.0066 32.9026C11.1309 32.9026 11.2553 32.8405 11.3797 32.7783C12.872 32.4052 14.4887 32.4052 16.2298 32.9648C16.4164 33.027 16.5408 33.0892 16.7273 33.1514L17.0382 33.2757L17.2247 33.2135C17.66 33.0892 18.1575 32.9648 18.5306 32.7783L20.2717 32.1565L18.4684 31.7212C18.2818 31.659 18.0331 31.5968 17.8466 31.5346Z" fill="#55B02E"/>
<path d="M27.3597 18.6631L26.427 19.5958C26.3027 19.7202 26.1783 19.8445 26.0539 19.9689C23.5045 22.394 19.4005 25.0056 14.799 23.2645C12.6227 22.4562 10.3841 22.3318 8.33213 22.8915C6.40449 23.4511 4.66338 24.446 3.10884 25.9384L2.30048 26.8089L2.05176 27.1198L2.30048 27.4929C2.48703 27.7416 2.6114 27.9282 2.73576 28.1769L3.10884 28.7365L3.54412 28.1769C3.6063 28.1147 3.73066 27.9904 3.79284 27.9282C5.2852 26.3114 6.90193 25.3165 8.76739 24.8191C10.4463 24.3838 12.2496 24.446 14.0528 25.13C15.6074 25.6896 17.2241 25.8762 18.8408 25.6896C21.7012 25.3787 24.5616 23.762 26.6758 21.9587C26.8001 21.8344 26.9245 21.7722 27.0488 21.6478L27.2354 21.4613V21.2747C27.2354 20.9016 27.2976 20.4664 27.2976 20.0933L27.3597 18.6631Z" fill="#55B02E"/>
<path d="M3.73045 12.9423L3.54391 12.5692L3.73045 12.9423C4.10354 12.7557 4.53883 12.6313 4.91192 12.507C6.59083 12.0717 8.3941 12.1339 10.1974 12.8179C11.3788 13.2532 12.5603 13.4397 13.8661 13.4397C16.4777 13.4397 19.0894 12.507 21.5145 10.7037L22.4472 9.95752L22.7581 9.70879L22.1985 9.27351C22.0119 9.08697 21.7632 8.90043 21.5145 8.77607L21.1414 8.52734L20.8305 8.77607C20.7061 8.83825 20.6439 8.96261 20.5195 9.02479C17.2239 11.5121 13.9283 12.1961 10.8192 11.0146C8.58065 10.2063 6.34209 10.0197 4.10355 10.7037C3.917 10.7659 3.73045 10.8281 3.48173 10.8902L3.35738 10.9524L3.17082 11.139C3.17082 11.2012 3.10865 11.2012 3.04647 11.2633C2.79774 11.6364 2.48682 11.9473 2.23809 12.3204L1.05664 14.1237L2.98428 13.1288C3.29519 13.1288 3.54391 13.0044 3.73045 12.9423Z" fill="#55B02E"/>
<path d="M8.82967 8.71393L9.01621 8.77611C9.82457 9.08702 11.0682 9.39793 12.6228 9.39793C14.2395 9.39793 15.794 9.02484 17.3486 8.40302L19.2762 7.47029L17.9704 7.03503C17.5973 6.91067 17.2242 6.7863 16.7889 6.72412H16.6024L16.4159 6.78629C16.2293 6.84847 16.0428 6.97285 15.8562 7.03503C13.9908 7.71903 12.1253 7.84339 10.322 7.34594C10.1355 7.28376 9.94894 7.22156 9.7624 7.15938L9.57586 7.0972L9.3893 7.15938C9.01621 7.28375 8.64313 7.40812 8.27004 7.59466L6.83984 8.21648L8.33222 8.65174C8.45659 8.58956 8.64312 8.65175 8.82967 8.71393Z" fill="#55B02E"/>
<path d="M39.8041 30.5V10.76H43.4161V18.992H53.5241V10.76H57.1361V30.5H53.5241V21.988H43.4161V30.5H39.8041ZM68.0397 30.78C65.669 30.78 63.8117 30.1267 62.4677 28.82C61.1237 27.5133 60.4517 25.7213 60.4517 23.444C60.4517 21.9693 60.741 20.6813 61.3197 19.58C61.8984 18.4787 62.701 17.62 63.7277 17.004C64.773 16.388 65.9864 16.08 67.3677 16.08C68.7304 16.08 69.869 16.3693 70.7837 16.948C71.6984 17.5267 72.389 18.3387 72.8557 19.384C73.341 20.4293 73.5837 21.652 73.5837 23.052V23.976H63.2797V22.128H71.0917L70.6157 22.52C70.6157 21.2133 70.3357 20.2147 69.7757 19.524C69.2344 18.8333 68.441 18.488 67.3957 18.488C66.2384 18.488 65.3424 18.8987 64.7077 19.72C64.0917 20.5413 63.7837 21.6893 63.7837 23.164V23.528C63.7837 25.0587 64.157 26.2067 64.9037 26.972C65.669 27.7187 66.7424 28.092 68.1237 28.092C68.9264 28.092 69.673 27.9893 70.3637 27.784C71.073 27.56 71.745 27.2053 72.3797 26.72L73.4157 29.072C72.7437 29.6133 71.941 30.0333 71.0077 30.332C70.0744 30.6307 69.085 30.78 68.0397 30.78ZM82.0076 30.78C80.7756 30.78 79.6929 30.4907 78.7596 29.912C77.8262 29.3147 77.0982 28.4653 76.5756 27.364C76.0529 26.2627 75.7916 24.9467 75.7916 23.416C75.7916 21.8853 76.0529 20.5787 76.5756 19.496C77.0982 18.3947 77.8262 17.5547 78.7596 16.976C79.6929 16.3787 80.7756 16.08 82.0076 16.08C83.2022 16.08 84.2476 16.3787 85.1436 16.976C86.0582 17.5547 86.6649 18.3387 86.9636 19.328H86.6556L86.9636 16.36H90.3236C90.2676 16.9387 90.2116 17.5267 90.1556 18.124C90.1182 18.7213 90.0996 19.3093 90.0996 19.888V30.5H86.6276L86.5996 27.588H86.9356C86.6369 28.5587 86.0302 29.3333 85.1156 29.912C84.2009 30.4907 83.1649 30.78 82.0076 30.78ZM82.9876 28.092C84.0889 28.092 84.9756 27.7093 85.6476 26.944C86.3196 26.16 86.6556 24.984 86.6556 23.416C86.6556 21.848 86.3196 20.6813 85.6476 19.916C84.9756 19.1507 84.0889 18.768 82.9876 18.768C81.8862 18.768 80.9996 19.1507 80.3276 19.916C79.6556 20.6813 79.3196 21.848 79.3196 23.416C79.3196 24.984 79.6462 26.16 80.2996 26.944C80.9716 27.7093 81.8676 28.092 82.9876 28.092ZM93.9108 30.5V9.892H97.4108V30.5H93.9108ZM107.26 30.78C105.58 30.78 104.31 30.3413 103.452 29.464C102.593 28.5867 102.164 27.2707 102.164 25.516V18.992H99.4476V16.36H102.164V12.748L105.664 11.852V16.36H109.444V18.992H105.664V25.292C105.664 26.2627 105.85 26.944 106.224 27.336C106.597 27.728 107.11 27.924 107.764 27.924C108.118 27.924 108.417 27.896 108.66 27.84C108.921 27.784 109.173 27.7093 109.416 27.616V30.388C109.098 30.5187 108.744 30.612 108.352 30.668C107.978 30.7427 107.614 30.78 107.26 30.78ZM111.821 30.5V9.892H115.321V19.188H114.929C115.358 18.18 116.021 17.4147 116.917 16.892C117.813 16.3507 118.84 16.08 119.997 16.08C121.677 16.08 122.928 16.556 123.749 17.508C124.57 18.4413 124.981 19.8693 124.981 21.792V30.5H121.481V21.96C121.481 20.8587 121.266 20.0653 120.837 19.58C120.426 19.076 119.764 18.824 118.849 18.824C117.785 18.824 116.926 19.16 116.273 19.832C115.638 20.4853 115.321 21.3627 115.321 22.464V30.5H111.821ZM136.656 30.5V10.76H149.676V13.588H140.268V19.188H149.032V22.016H140.268V30.5H136.656ZM158.291 30.78C156.835 30.78 155.575 30.4813 154.511 29.884C153.447 29.2867 152.616 28.4373 152.019 27.336C151.44 26.2347 151.151 24.928 151.151 23.416C151.151 21.904 151.44 20.6067 152.019 19.524C152.616 18.4227 153.447 17.5733 154.511 16.976C155.575 16.3787 156.835 16.08 158.291 16.08C159.747 16.08 161.007 16.3787 162.071 16.976C163.154 17.5733 163.984 18.4227 164.563 19.524C165.16 20.6067 165.459 21.904 165.459 23.416C165.459 24.928 165.16 26.2347 164.563 27.336C163.984 28.4373 163.154 29.2867 162.071 29.884C161.007 30.4813 159.747 30.78 158.291 30.78ZM158.291 28.092C159.392 28.092 160.27 27.7093 160.923 26.944C161.576 26.16 161.903 24.984 161.903 23.416C161.903 21.848 161.576 20.6813 160.923 19.916C160.27 19.1507 159.392 18.768 158.291 18.768C157.19 18.768 156.312 19.1507 155.659 19.916C155.006 20.6813 154.679 21.848 154.679 23.416C154.679 24.984 155.006 26.16 155.659 26.944C156.312 27.7093 157.19 28.092 158.291 28.092ZM168.449 30.5V19.972C168.449 19.3747 168.431 18.768 168.393 18.152C168.375 17.536 168.328 16.9387 168.253 16.36H171.641L172.033 20.224H171.473C171.66 19.2907 171.968 18.516 172.397 17.9C172.845 17.284 173.387 16.8267 174.021 16.528C174.656 16.2293 175.347 16.08 176.093 16.08C176.429 16.08 176.7 16.0987 176.905 16.136C177.111 16.1547 177.316 16.2013 177.521 16.276L177.493 19.356C177.139 19.2067 176.831 19.1133 176.569 19.076C176.327 19.0387 176.019 19.02 175.645 19.02C174.843 19.02 174.161 19.188 173.601 19.524C173.06 19.86 172.649 20.3267 172.369 20.924C172.108 21.5213 171.977 22.2027 171.977 22.968V30.5H168.449ZM186.31 30.78C184.63 30.78 183.361 30.3413 182.502 29.464C181.644 28.5867 181.214 27.2707 181.214 25.516V18.992H178.498V16.36H181.214V12.748L184.714 11.852V16.36H188.494V18.992H184.714V25.292C184.714 26.2627 184.901 26.944 185.274 27.336C185.648 27.728 186.161 27.924 186.814 27.924C187.169 27.924 187.468 27.896 187.71 27.84C187.972 27.784 188.224 27.7093 188.466 27.616V30.388C188.149 30.5187 187.794 30.612 187.402 30.668C187.029 30.7427 186.665 30.78 186.31 30.78ZM195.968 30.78C194.232 30.78 192.934 30.304 192.076 29.352C191.217 28.4 190.788 26.944 190.788 24.984V16.36H194.288V24.956C194.288 26.0013 194.502 26.776 194.932 27.28C195.361 27.7653 196.014 28.008 196.892 28.008C197.881 28.008 198.684 27.672 199.3 27C199.934 26.328 200.252 25.4413 200.252 24.34V16.36H203.752V30.5H200.336V27.616H200.728C200.317 28.624 199.692 29.408 198.852 29.968C198.03 30.5093 197.069 30.78 195.968 30.78ZM207.551 30.5V19.888C207.551 19.3093 207.533 18.7213 207.495 18.124C207.458 17.5267 207.402 16.9387 207.327 16.36H210.715L210.995 19.16H210.659C211.107 18.1707 211.77 17.4147 212.647 16.892C213.525 16.3507 214.542 16.08 215.699 16.08C217.361 16.08 218.611 16.5467 219.451 17.48C220.291 18.4133 220.711 19.8693 220.711 21.848V30.5H217.211V22.016C217.211 20.8773 216.987 20.0653 216.539 19.58C216.11 19.076 215.457 18.824 214.579 18.824C213.497 18.824 212.638 19.16 212.003 19.832C211.369 20.504 211.051 21.4 211.051 22.52V30.5H207.551ZM231.255 30.78C228.884 30.78 227.027 30.1267 225.683 28.82C224.339 27.5133 223.667 25.7213 223.667 23.444C223.667 21.9693 223.956 20.6813 224.535 19.58C225.113 18.4787 225.916 17.62 226.943 17.004C227.988 16.388 229.201 16.08 230.583 16.08C231.945 16.08 233.084 16.3693 233.999 16.948C234.913 17.5267 235.604 18.3387 236.071 19.384C236.556 20.4293 236.799 21.652 236.799 23.052V23.976H226.495V22.128H234.307L233.831 22.52C233.831 21.2133 233.551 20.2147 232.991 19.524C232.449 18.8333 231.656 18.488 230.611 18.488C229.453 18.488 228.557 18.8987 227.923 19.72C227.307 20.5413 226.999 21.6893 226.999 23.164V23.528C226.999 25.0587 227.372 26.2067 228.119 26.972C228.884 27.7187 229.957 28.092 231.339 28.092C232.141 28.092 232.888 27.9893 233.579 27.784C234.288 27.56 234.96 27.2053 235.595 26.72L236.631 29.072C235.959 29.6133 235.156 30.0333 234.223 30.332C233.289 30.6307 232.3 30.78 231.255 30.78Z" fill="white"/>
</svg>
